<svg viewBox="0 0 88 13" fill="none" xmlns="http://www.w3.org/2000/svg">
<path d="M4.912 12.096C4.08 12.096 3.28 11.9627 2.512 11.696C1.75467 11.4187 1.168 11.0667 0.752 10.64L1.216 9.728C1.61067 10.112 2.13867 10.4373 2.8 10.704C3.472 10.96 4.176 11.088 4.912 11.088C5.616 11.088 6.18667 11.0027 6.624 10.832C7.072 10.6507 7.39733 10.4107 7.6 10.112C7.81333 9.81333 7.92 9.48267 7.92 9.12C7.92 8.68267 7.792 8.33067 7.536 8.064C7.29067 7.79733 6.96533 7.58933 6.56 7.44C6.15467 7.28 5.70667 7.14133 5.216 7.024C4.72533 6.90667 4.23467 6.784 3.744 6.656C3.25333 6.51733 2.8 6.336 2.384 6.112C1.97867 5.888 1.648 5.59467 1.392 5.232C1.14667 4.85867 1.024 4.37333 1.024 3.776C1.024 3.22133 1.168 2.71467 1.456 2.256C1.75467 1.78667 2.208 1.41333 2.816 1.136C3.424 0.848 4.20267 0.704 5.152 0.704C5.78133 0.704 6.40533 0.794666 7.024 0.976C7.64267 1.14667 8.176 1.38667 8.624 1.696L8.224 2.64C7.744 2.32 7.232 2.08533 6.688 1.936C6.15467 1.78667 5.63733 1.712 5.136 1.712C4.464 1.712 3.90933 1.80267 3.472 1.984C3.03467 2.16533 2.70933 2.41067 2.496 2.72C2.29333 3.01867 2.192 3.36 2.192 3.744C2.192 4.18133 2.31467 4.53333 2.56 4.8C2.816 5.06667 3.14667 5.27467 3.552 5.424C3.968 5.57333 4.42133 5.70667 4.912 5.824C5.40267 5.94133 5.888 6.06933 6.368 6.208C6.85867 6.34667 7.30667 6.528 7.712 6.752C8.128 6.96533 8.45867 7.25333 8.704 7.616C8.96 7.97867 9.088 8.45333 9.088 9.04C9.088 9.584 8.93867 10.0907 8.64 10.56C8.34133 11.0187 7.88267 11.392 7.264 11.68C6.656 11.9573 5.872 12.096 4.912 12.096ZM22.1798 0.799999H23.3478V12H22.1798V0.799999ZM15.1717 12H13.9877V0.799999H15.1717V12ZM22.2917 6.832H15.0437V5.792H22.2917V6.832ZM29.3234 12V0.799999H30.5074V12H29.3234ZM36.4715 12V0.799999H41.3035C42.5515 0.799999 43.5168 1.05067 44.1995 1.552C44.8928 2.05333 45.2395 2.76267 45.2395 3.68C45.2395 4.288 45.0955 4.8 44.8075 5.216C44.5302 5.632 44.1462 5.94667 43.6555 6.16C43.1755 6.37333 42.6475 6.48 42.0715 6.48L42.3435 6.096C43.0582 6.096 43.6715 6.208 44.1835 6.432C44.7062 6.64533 45.1115 6.97067 45.3995 7.408C45.6875 7.83467 45.8315 8.368 45.8315 9.008C45.8315 9.95733 45.4795 10.6933 44.7755 11.216C44.0822 11.7387 43.0315 12 41.6235 12H36.4715ZM37.6555 11.024H41.6075C42.5888 11.024 43.3408 10.8587 43.8635 10.528C44.3862 10.1867 44.6475 9.648 44.6475 8.912C44.6475 8.18667 44.3862 7.65867 43.8635 7.328C43.3408 6.98667 42.5888 6.816 41.6075 6.816H37.5275V5.84H41.2235C42.1195 5.84 42.8128 5.66933 43.3035 5.328C43.8048 4.98667 44.0555 4.48 44.0555 3.808C44.0555 3.12533 43.8048 2.61867 43.3035 2.288C42.8128 1.94667 42.1195 1.776 41.2235 1.776H37.6555V11.024ZM51.91 5.808H57.83V6.816H51.91V5.808ZM52.038 10.976H58.774V12H50.854V0.799999H58.534V1.824H52.038V10.976ZM64.9011 9.216L64.8531 7.776L71.6371 0.799999H72.9971L68.0531 5.984L67.3811 6.704L64.9011 9.216ZM63.8771 12V0.799999H65.0611V12H63.8771ZM71.9251 12L67.0931 6.432L67.8931 5.568L73.3331 12H71.9251ZM82.0619 12.096C81.2192 12.096 80.4352 11.9573 79.7099 11.68C78.9952 11.392 78.3712 10.992 77.8379 10.48C77.3152 9.95733 76.9045 9.35467 76.6059 8.672C76.3179 7.97867 76.1739 7.22133 76.1739 6.4C76.1739 5.57867 76.3179 4.82667 76.6059 4.144C76.9045 3.45067 77.3152 2.848 77.8379 2.336C78.3712 1.81333 78.9952 1.41333 79.7099 1.136C80.4245 0.848 81.2085 0.704 82.0619 0.704C82.9045 0.704 83.6832 0.848 84.3979 1.136C85.1125 1.41333 85.7312 1.808 86.2539 2.32C86.7872 2.832 87.1979 3.43467 87.4859 4.128C87.7845 4.82133 87.9339 5.57867 87.9339 6.4C87.9339 7.22133 87.7845 7.97867 87.4859 8.672C87.1979 9.36533 86.7872 9.968 86.2539 10.48C85.7312 10.992 85.1125 11.392 84.3979 11.68C83.6832 11.9573 82.9045 12.096 82.0619 12.096ZM82.0619 11.04C82.7339 11.04 83.3525 10.928 83.9179 10.704C84.4939 10.4693 84.9899 10.144 85.4059 9.728C85.8325 9.30133 86.1632 8.81067 86.3979 8.256C86.6325 7.69067 86.7499 7.072 86.7499 6.4C86.7499 5.728 86.6325 5.11467 86.3979 4.56C86.1632 3.99467 85.8325 3.504 85.4059 3.088C84.9899 2.66133 84.4939 2.336 83.9179 2.112C83.3525 1.87733 82.7339 1.76 82.0619 1.76C81.3899 1.76 80.7659 1.87733 80.1899 2.112C79.6139 2.336 79.1125 2.66133 78.6859 3.088C78.2699 3.504 77.9392 3.99467 77.6939 4.56C77.4592 5.11467 77.3419 5.728 77.3419 6.4C77.3419 7.06133 77.4592 7.67467 77.6939 8.24C77.9392 8.80533 78.2699 9.30133 78.6859 9.728C79.1125 10.144 79.6139 10.4693 80.1899 10.704C80.7659 10.928 81.3899 11.04 82.0619 11.04Z" fill="black"/>
</svg>
